<svg width="45" height="45" viewBox="0 0 45 45" fill="none" xmlns="http://www.w3.org/2000/svg">
<rect width="44.2799" height="44.4824" rx="22.1399" fill="url(#paint0_linear_539_458)"/>
<path d="M11.1534 17.4969C10.2884 17.7287 9.7657 18.6232 10.104 19.4523C10.9821 21.6043 12.4296 23.4893 14.3042 24.8969C16.6131 26.6305 19.4366 27.5399 22.3232 27.4796C25.2099 27.4193 27.9929 26.3928 30.2274 24.5643C32.0416 23.0796 33.4091 21.1358 34.1966 18.9491C34.5 18.1066 33.9404 17.2346 33.0665 17.0392C32.1926 16.8437 31.3381 17.4016 30.9995 18.2306C30.3939 19.7129 29.4259 21.0299 28.1737 22.0546C26.5006 23.4237 24.4169 24.1923 22.2555 24.2375C20.0942 24.2826 17.9801 23.6017 16.2514 22.3037C14.9574 21.3321 13.9353 20.0567 13.2683 18.601C12.8954 17.7869 12.0184 17.2651 11.1534 17.4969Z" fill="#F4F0EF"/>
<defs>
<linearGradient id="paint0_linear_539_458" x1="0" y1="22.2412" x2="44.2799" y2="22.2412" gradientUnits="userSpaceOnUse">
<stop stop-color="#3E44F5"/>
<stop offset="1" stop-color="#FF7820"/>
</linearGradient>
</defs>
</svg>
