<svg width="44" height="44" viewBox="0 0 44 44" fill="none" xmlns="http://www.w3.org/2000/svg">
<rect width="44" height="44" rx="22" fill="#17163C"/>
<path d="M33.0991 26.7929C33.9729 26.5587 34.501 25.655 34.1592 24.8174C33.2721 22.6434 31.8098 20.7391 29.916 19.3171C27.5835 17.5657 24.731 16.647 21.8148 16.7079C18.8986 16.7688 16.087 17.8058 13.8297 19.6531C11.9969 21.153 10.6154 23.1167 9.81983 25.3258C9.51332 26.177 10.0787 27.0578 10.9615 27.2553C11.8444 27.4527 12.7076 26.8891 13.0497 26.0517C13.6615 24.5542 14.6394 23.2237 15.9045 22.1885C17.5946 20.8053 19.6997 20.0289 21.8832 19.9833C24.0667 19.9377 26.2024 20.6255 27.9489 21.9369C29.2561 22.9184 30.2887 24.2068 30.9625 25.6775C31.3393 26.4999 32.2252 27.027 33.0991 26.7929Z" fill="#F4F0EF"/>
</svg>
